<mxfile host="app.diagrams.net" modified="2022-03-29T06:49:07.297Z" agent="5.0 (Windows NT 10.0; Win64; x64) AppleWebKit/537.36 (KHTML, like Gecko) Chrome/99.0.4844.82 Safari/537.36" etag="ym6G65ZfzzGCpE9-L7sK" version="17.1.5" type="github">
  <diagram id="Bxvz-Dbm4pdAkRgb3SBI" name="Page-1">
    <mxGraphModel dx="1038" dy="539" grid="1" gridSize="10" guides="1" tooltips="1" connect="1" arrows="1" fold="1" page="1" pageScale="1" pageWidth="850" pageHeight="1100" math="0" shadow="0">
      <root>
        <mxCell id="0" />
        <mxCell id="1" parent="0" />
        <mxCell id="DHcGGEWkQ_MLau7FrWNt-1" value=":Customer" style="rounded=0;whiteSpace=wrap;html=1;" vertex="1" parent="1">
          <mxGeometry x="30" y="120" width="120" height="60" as="geometry" />
        </mxCell>
        <mxCell id="DHcGGEWkQ_MLau7FrWNt-2" value=":Order" style="rounded=0;whiteSpace=wrap;html=1;" vertex="1" parent="1">
          <mxGeometry x="240" y="120" width="120" height="60" as="geometry" />
        </mxCell>
        <mxCell id="DHcGGEWkQ_MLau7FrWNt-3" value=":Special Order" style="rounded=0;whiteSpace=wrap;html=1;" vertex="1" parent="1">
          <mxGeometry x="480" y="120" width="120" height="60" as="geometry" />
        </mxCell>
        <mxCell id="DHcGGEWkQ_MLau7FrWNt-4" value=":Normal Order" style="rounded=0;whiteSpace=wrap;html=1;" vertex="1" parent="1">
          <mxGeometry x="700" y="120" width="120" height="60" as="geometry" />
        </mxCell>
        <mxCell id="DHcGGEWkQ_MLau7FrWNt-5" value="" style="html=1;points=[];perimeter=orthogonalPerimeter;" vertex="1" parent="1">
          <mxGeometry x="80" y="220" width="10" height="300" as="geometry" />
        </mxCell>
        <mxCell id="DHcGGEWkQ_MLau7FrWNt-6" value="" style="html=1;points=[];perimeter=orthogonalPerimeter;" vertex="1" parent="1">
          <mxGeometry x="755" y="220" width="10" height="170" as="geometry" />
        </mxCell>
        <mxCell id="DHcGGEWkQ_MLau7FrWNt-7" value="" style="html=1;points=[];perimeter=orthogonalPerimeter;" vertex="1" parent="1">
          <mxGeometry x="535" y="280" width="10" height="100" as="geometry" />
        </mxCell>
        <mxCell id="DHcGGEWkQ_MLau7FrWNt-8" value="" style="html=1;points=[];perimeter=orthogonalPerimeter;" vertex="1" parent="1">
          <mxGeometry x="295" y="220" width="10" height="300" as="geometry" />
        </mxCell>
        <mxCell id="DHcGGEWkQ_MLau7FrWNt-9" value="" style="endArrow=classic;html=1;rounded=0;entryX=0.5;entryY=0.5;entryDx=0;entryDy=0;entryPerimeter=0;" edge="1" parent="1" target="DHcGGEWkQ_MLau7FrWNt-8">
          <mxGeometry width="50" height="50" relative="1" as="geometry">
            <mxPoint x="90" y="370" as="sourcePoint" />
            <mxPoint x="140" y="320" as="targetPoint" />
          </mxGeometry>
        </mxCell>
        <mxCell id="DHcGGEWkQ_MLau7FrWNt-10" value="Message" style="text;html=1;strokeColor=none;fillColor=none;align=center;verticalAlign=middle;whiteSpace=wrap;rounded=0;" vertex="1" parent="1">
          <mxGeometry x="150" y="330" width="60" height="30" as="geometry" />
        </mxCell>
        <mxCell id="DHcGGEWkQ_MLau7FrWNt-11" value="Send Order()" style="text;html=1;strokeColor=none;fillColor=none;align=center;verticalAlign=middle;whiteSpace=wrap;rounded=0;" vertex="1" parent="1">
          <mxGeometry x="150" y="380" width="90" height="30" as="geometry" />
        </mxCell>
        <mxCell id="DHcGGEWkQ_MLau7FrWNt-12" value="Call" style="html=1;verticalAlign=bottom;startArrow=oval;startFill=1;endArrow=block;startSize=8;rounded=0;" edge="1" parent="1">
          <mxGeometry width="60" relative="1" as="geometry">
            <mxPoint x="20" y="230" as="sourcePoint" />
            <mxPoint x="80" y="230" as="targetPoint" />
          </mxGeometry>
        </mxCell>
        <mxCell id="DHcGGEWkQ_MLau7FrWNt-13" value="" style="endArrow=classic;html=1;rounded=0;" edge="1" parent="1">
          <mxGeometry width="50" height="50" relative="1" as="geometry">
            <mxPoint x="305" y="320" as="sourcePoint" />
            <mxPoint x="530" y="320" as="targetPoint" />
          </mxGeometry>
        </mxCell>
        <mxCell id="DHcGGEWkQ_MLau7FrWNt-14" value="Confirm()" style="text;html=1;strokeColor=none;fillColor=none;align=center;verticalAlign=middle;whiteSpace=wrap;rounded=0;" vertex="1" parent="1">
          <mxGeometry x="380" y="290" width="60" height="30" as="geometry" />
        </mxCell>
        <mxCell id="DHcGGEWkQ_MLau7FrWNt-15" value="return" style="html=1;verticalAlign=bottom;endArrow=open;dashed=1;endSize=8;rounded=0;" edge="1" parent="1" target="DHcGGEWkQ_MLau7FrWNt-5">
          <mxGeometry relative="1" as="geometry">
            <mxPoint x="290" y="460" as="sourcePoint" />
            <mxPoint x="210" y="460" as="targetPoint" />
          </mxGeometry>
        </mxCell>
        <mxCell id="DHcGGEWkQ_MLau7FrWNt-16" value="return" style="html=1;verticalAlign=bottom;endArrow=open;dashed=1;endSize=8;rounded=0;exitX=0.14;exitY=0.814;exitDx=0;exitDy=0;exitPerimeter=0;" edge="1" parent="1" source="DHcGGEWkQ_MLau7FrWNt-7">
          <mxGeometry relative="1" as="geometry">
            <mxPoint x="505" y="360" as="sourcePoint" />
            <mxPoint x="305" y="360" as="targetPoint" />
          </mxGeometry>
        </mxCell>
        <mxCell id="DHcGGEWkQ_MLau7FrWNt-17" value="" style="html=1;points=[];perimeter=orthogonalPerimeter;" vertex="1" parent="1">
          <mxGeometry x="305" y="280" width="10" height="100" as="geometry" />
        </mxCell>
        <mxCell id="DHcGGEWkQ_MLau7FrWNt-19" value="" style="endArrow=classic;html=1;rounded=0;entryX=1.1;entryY=0.006;entryDx=0;entryDy=0;entryPerimeter=0;exitX=1.18;exitY=0.886;exitDx=0;exitDy=0;exitPerimeter=0;" edge="1" parent="1" source="DHcGGEWkQ_MLau7FrWNt-7" target="DHcGGEWkQ_MLau7FrWNt-7">
          <mxGeometry width="50" height="50" relative="1" as="geometry">
            <mxPoint x="550" y="370" as="sourcePoint" />
            <mxPoint x="600" y="240" as="targetPoint" />
            <Array as="points">
              <mxPoint x="600" y="370" />
              <mxPoint x="600" y="281" />
            </Array>
          </mxGeometry>
        </mxCell>
        <mxCell id="DHcGGEWkQ_MLau7FrWNt-20" value="Dispatch()" style="text;html=1;strokeColor=none;fillColor=none;align=center;verticalAlign=middle;whiteSpace=wrap;rounded=0;" vertex="1" parent="1">
          <mxGeometry x="570" y="240" width="60" height="30" as="geometry" />
        </mxCell>
        <mxCell id="DHcGGEWkQ_MLau7FrWNt-21" value="Selfcare" style="text;html=1;strokeColor=none;fillColor=none;align=center;verticalAlign=middle;whiteSpace=wrap;rounded=0;" vertex="1" parent="1">
          <mxGeometry x="590" y="380" width="60" height="30" as="geometry" />
        </mxCell>
        <mxCell id="DHcGGEWkQ_MLau7FrWNt-22" value="" style="endArrow=none;dashed=1;html=1;dashPattern=1 3;strokeWidth=2;rounded=0;exitX=1;exitY=0;exitDx=0;exitDy=0;exitPerimeter=0;entryX=0.5;entryY=1;entryDx=0;entryDy=0;" edge="1" parent="1" source="DHcGGEWkQ_MLau7FrWNt-5" target="DHcGGEWkQ_MLau7FrWNt-1">
          <mxGeometry width="50" height="50" relative="1" as="geometry">
            <mxPoint x="80" y="220" as="sourcePoint" />
            <mxPoint x="130" y="170" as="targetPoint" />
          </mxGeometry>
        </mxCell>
        <mxCell id="DHcGGEWkQ_MLau7FrWNt-23" value="" style="endArrow=none;dashed=1;html=1;dashPattern=1 3;strokeWidth=2;rounded=0;exitX=0.46;exitY=-0.009;exitDx=0;exitDy=0;exitPerimeter=0;entryX=0.5;entryY=1;entryDx=0;entryDy=0;" edge="1" parent="1" source="DHcGGEWkQ_MLau7FrWNt-8" target="DHcGGEWkQ_MLau7FrWNt-2">
          <mxGeometry width="50" height="50" relative="1" as="geometry">
            <mxPoint x="147" y="230" as="sourcePoint" />
            <mxPoint x="147" y="190" as="targetPoint" />
          </mxGeometry>
        </mxCell>
        <mxCell id="DHcGGEWkQ_MLau7FrWNt-24" value="" style="endArrow=none;dashed=1;html=1;dashPattern=1 3;strokeWidth=2;rounded=0;exitX=0.38;exitY=0.006;exitDx=0;exitDy=0;exitPerimeter=0;entryX=0.5;entryY=1;entryDx=0;entryDy=0;" edge="1" parent="1" source="DHcGGEWkQ_MLau7FrWNt-7" target="DHcGGEWkQ_MLau7FrWNt-3">
          <mxGeometry width="50" height="50" relative="1" as="geometry">
            <mxPoint x="110" y="240" as="sourcePoint" />
            <mxPoint x="110" y="200" as="targetPoint" />
          </mxGeometry>
        </mxCell>
        <mxCell id="DHcGGEWkQ_MLau7FrWNt-25" value="" style="endArrow=none;dashed=1;html=1;dashPattern=1 3;strokeWidth=2;rounded=0;exitX=0.38;exitY=0.006;exitDx=0;exitDy=0;exitPerimeter=0;entryX=0.5;entryY=1;entryDx=0;entryDy=0;" edge="1" parent="1">
          <mxGeometry width="50" height="50" relative="1" as="geometry">
            <mxPoint x="539.4" y="480.6" as="sourcePoint" />
            <mxPoint x="540.6" y="380" as="targetPoint" />
          </mxGeometry>
        </mxCell>
        <mxCell id="DHcGGEWkQ_MLau7FrWNt-26" value="" style="endArrow=none;dashed=1;html=1;dashPattern=1 3;strokeWidth=2;rounded=0;entryX=0.5;entryY=1;entryDx=0;entryDy=0;" edge="1" parent="1">
          <mxGeometry width="50" height="50" relative="1" as="geometry">
            <mxPoint x="761" y="220" as="sourcePoint" />
            <mxPoint x="760.6" y="179.4" as="targetPoint" />
          </mxGeometry>
        </mxCell>
        <mxCell id="DHcGGEWkQ_MLau7FrWNt-29" value="" style="endArrow=none;dashed=1;html=1;dashPattern=1 3;strokeWidth=2;rounded=0;exitX=0.38;exitY=0.006;exitDx=0;exitDy=0;exitPerimeter=0;entryX=0.5;entryY=1;entryDx=0;entryDy=0;" edge="1" parent="1">
          <mxGeometry width="50" height="50" relative="1" as="geometry">
            <mxPoint x="759.4" y="490.6" as="sourcePoint" />
            <mxPoint x="760.6" y="390" as="targetPoint" />
          </mxGeometry>
        </mxCell>
        <mxCell id="DHcGGEWkQ_MLau7FrWNt-30" value="&lt;font style=&quot;font-size: 20px&quot;&gt;Aditya Sharma&lt;br&gt;20BCS9872&lt;/font&gt;" style="text;html=1;strokeColor=none;fillColor=none;align=center;verticalAlign=middle;whiteSpace=wrap;rounded=0;" vertex="1" parent="1">
          <mxGeometry x="165" y="30" width="245" height="40" as="geometry" />
        </mxCell>
        <mxCell id="DHcGGEWkQ_MLau7FrWNt-31" value="OR" style="text;html=1;strokeColor=none;fillColor=none;align=center;verticalAlign=middle;whiteSpace=wrap;rounded=0;fontSize=20;" vertex="1" parent="1">
          <mxGeometry x="620" y="135" width="60" height="30" as="geometry" />
        </mxCell>
      </root>
    </mxGraphModel>
  </diagram>
</mxfile>
